<?xml version="1.0" standalone="no"?>
<!DOCTYPE svg PUBLIC "-//W3C//DTD SVG 20010904//EN"
 "http://www.w3.org/TR/2001/REC-SVG-20010904/DTD/svg10.dtd">
<svg version="1.0" xmlns="http://www.w3.org/2000/svg"
 width="363.000000pt" height="356.000000pt" viewBox="0 0 363.000000 356.000000"
 preserveAspectRatio="xMidYMid meet">

<g transform="translate(0.000000,356.000000) scale(0.100000,-0.100000)"
fill="#FFFFFF" stroke="none">
<path d="M1705 3533 c-297 -24 -534 -92 -770 -224 -219 -121 -438 -315 -578
-510 -81 -113 -202 -351 -240 -470 -109 -343 -109 -714 -2 -1045 39 -118 166
-366 242 -473 82 -115 248 -284 363 -371 472 -358 1098 -461 1660 -274 594
198 1039 688 1169 1285 63 293 43 619 -55 900 -180 518 -589 918 -1118 1094
-207 69 -474 104 -671 88z m428 -88 c693 -125 1242 -665 1368 -1345 55 -298
15 -698 -87 -863 -113 -183 -347 -359 -579 -436 -95 -31 -261 -62 -365 -68
-198 -11 -480 50 -695 152 -86 41 -232 136 -296 193 -52 46 -229 254 -249 292
-7 14 -31 49 -53 78 -57 79 -167 142 -167 97 0 -9 -11 -20 -25 -25 -34 -13
-41 -51 -20 -105 18 -49 47 -75 82 -75 13 0 23 -6 23 -13 0 -17 65 -152 90
-187 11 -16 20 -31 20 -36 0 -22 -139 140 -209 244 -24 35 -67 114 -97 175
l-54 112 1 118 c2 161 24 257 58 257 27 0 64 46 64 79 0 58 -43 77 -103 46
-34 -18 -100 -119 -100 -155 0 -50 -15 -51 -39 -3 l-22 46 34 36 c19 20 57 69
83 110 27 41 57 85 66 99 9 14 22 56 28 93 13 74 6 96 -48 168 -24 33 -26 33
-82 28 -76 -8 -83 -12 -126 -64 -107 -130 -113 -315 -15 -450 16 -22 32 -58
36 -81 7 -41 6 -42 -20 -42 -28 0 -85 -50 -85 -75 0 -28 -20 -25 -35 6 -16 29
-16 42 -1 172 9 77 14 142 12 144 -9 9 -26 -66 -32 -142 -8 -103 -16 -119 -38
-77 -9 17 -29 38 -45 46 l-29 15 15 63 c39 172 112 335 201 455 248 333 530
500 1002 594 86 17 89 18 32 14 -150 -11 -427 -97 -603 -186 -89 -44 -250
-171 -321 -251 -185 -210 -278 -378 -328 -594 -14 -60 -28 -95 -42 -107 -25
-21 -26 -62 -4 -106 11 -20 16 -57 16 -113 l0 -83 -26 43 c-14 23 -29 42 -34
42 -10 0 -4 136 11 235 32 220 149 482 290 645 235 273 508 427 867 490 144
25 196 38 164 39 -38 2 -273 -38 -350 -60 -410 -114 -752 -419 -907 -809 -65
-162 -93 -294 -96 -440 l-1 -86 -34 0 -34 0 6 81 c16 201 75 429 152 580 83
164 259 378 395 481 204 153 441 251 698 289 63 9 145 21 182 27 110 16 72 18
-68 3 -279 -29 -403 -63 -596 -161 -208 -106 -320 -195 -447 -353 -130 -162
-185 -256 -253 -438 -100 -266 -111 -619 -29 -918 93 -342 348 -691 670 -917
175 -123 498 -260 673 -286 80 -12 72 1 -10 16 -214 41 -533 189 -721 336
-131 103 -295 276 -382 406 -114 170 -194 362 -233 561 -33 166 -37 199 -26
199 5 0 9 -4 9 -10 0 -5 13 -24 29 -42 21 -25 30 -48 36 -93 18 -147 65 -270
164 -430 28 -44 50 -85 51 -91 0 -6 32 -60 72 -120 82 -126 234 -281 359 -369
43 -30 81 -55 85 -55 4 0 12 -6 18 -14 15 -18 136 -80 210 -107 41 -15 54 -24
45 -30 -12 -7 -11 -9 1 -10 47 -3 132 -26 105 -29 -30 -3 29 -19 93 -25 28 -3
63 -10 76 -15 13 -5 27 -6 30 -3 3 4 6 1 6 -5 0 -6 -8 -13 -17 -15 -14 -4 -12
-5 5 -6 12 0 22 4 22 9 0 6 10 10 23 10 18 0 19 -2 7 -10 -11 -7 1 -9 40 -9
76 2 90 0 65 -11 -19 -8 -19 -9 2 -9 12 -1 25 4 29 10 4 7 10 7 16 1 6 -6 17
-8 24 -5 8 3 14 1 14 -4 0 -5 20 -9 44 -8 24 0 42 4 39 8 -2 4 7 5 21 1 13 -3
31 -2 38 2 19 12 69 12 65 0 -2 -6 -11 -10 -20 -8 -8 1 -18 -2 -22 -8 -11 -18
31 -11 49 9 17 19 76 34 76 20 0 -4 -13 -10 -30 -14 -16 -4 -33 -11 -36 -17
-5 -8 1 -9 17 -5 13 4 35 7 48 7 17 0 22 4 17 15 -4 13 -2 14 14 5 16 -9 18
-8 14 5 -4 9 0 15 7 16 8 1 27 3 44 5 22 2 26 1 15 -6 -8 -5 -23 -10 -33 -10
-10 0 -15 -5 -12 -10 3 -6 -4 -14 -17 -19 -13 -4 -22 -11 -20 -15 7 -19 -5
-25 -75 -35 -448 -69 -933 48 -1278 308 -203 152 -385 371 -502 604 -125 251
-195 619 -164 873 58 470 255 846 596 1132 263 221 585 359 920 396 83 9 402
-3 488 -19z m-1643 -579 c0 -2 -8 -10 -17 -17 -16 -13 -17 -12 -4 4 13 16 21
21 21 13z m-91 -121 c-17 -25 -33 -45 -35 -45 -7 0 3 18 33 58 36 48 37 39 2
-13z m-102 -167 c-64 -118 -115 -253 -153 -403 -19 -71 -31 -110 -28 -85 20
152 120 423 201 547 32 49 22 19 -20 -59z m446 -75 c-5 -15 -3 -15 9 1 14 17
19 18 45 7 60 -24 84 -132 49 -216 -19 -46 -115 -174 -154 -207 -18 -15 -32
-33 -32 -40 0 -7 -9 2 -20 20 -32 52 -61 172 -55 222 8 66 53 156 96 195 42
38 72 46 62 18z m171 -379 c21 -20 20 -32 -4 -71 -24 -39 -34 -42 -28 -8 7 36
1 31 -26 -22 -33 -67 -56 -167 -56 -248 0 -37 -2 -66 -5 -64 -2 3 -16 50 -29
105 -24 93 -25 104 -12 152 22 87 85 165 138 171 4 1 14 -6 22 -15z m-807
-146 c-3 -7 -5 -2 -5 12 0 14 2 19 5 13 2 -7 2 -19 0 -25z m591 -31 c12 -28
33 -97 46 -152 41 -167 140 -375 249 -520 278 -373 775 -636 1276 -677 80 -7
135 -15 125 -19 -41 -16 -351 22 -504 61 -240 61 -440 160 -655 324 -165 126
-321 314 -415 504 -45 91 -98 250 -126 377 -14 61 -27 120 -30 133 -11 42 11
22 34 -31z m-272 6 c44 -47 65 -91 66 -135 0 -24 3 -37 5 -30 3 6 9 10 14 6
12 -7 12 -44 -1 -44 -5 0 -10 -21 -10 -47 l0 -48 -24 40 c-13 22 -41 69 -61
105 -21 36 -48 78 -61 93 -23 27 -31 66 -17 80 16 17 65 6 89 -20z m-329 -195
c-2 -29 -3 -6 -3 52 0 58 1 81 3 53 2 -29 2 -77 0 -105z m568 110 c3 -13 9
-45 15 -73 13 -62 73 -264 95 -319 7 -16 5 -17 -16 -11 -23 8 -23 8 4 -29 34
-44 19 -46 -43 -6 -89 57 -141 151 -148 270 -5 95 14 165 42 154 9 -3 17 2 21
15 8 28 23 27 30 -1z m-268 -64 c3 -9 27 -54 53 -99 36 -61 53 -106 70 -181
12 -54 37 -130 57 -169 l35 -70 -31 29 c-34 32 -127 169 -161 235 -36 71 -65
271 -40 271 6 0 13 -7 17 -16z m-137 -34 c16 -8 130 -207 130 -226 0 -4 -15
10 -34 32 -19 21 -55 62 -80 89 -47 50 -64 85 -51 104 8 13 12 14 35 1z m128
-330 c10 -68 38 -157 47 -148 2 2 -6 37 -16 78 -11 41 -18 86 -17 100 3 22 6
19 36 -28 18 -30 36 -68 39 -85 10 -51 62 -175 91 -216 133 -189 202 -275 235
-292 l22 -12 -21 24 c-174 201 -233 285 -274 390 -32 84 -34 115 -3 60 83
-148 164 -254 293 -381 75 -74 164 -157 197 -185 34 -27 60 -51 58 -53 -2 -3
-39 15 -82 39 -43 23 -107 58 -143 77 -92 48 -160 103 -256 206 -98 105 -112
102 -21 -5 60 -70 138 -142 219 -202 73 -54 89 -84 28 -52 -19 10 -29 12 -25
5 4 -7 2 -16 -5 -20 -8 -5 -4 -17 17 -41 55 -65 58 -74 13 -38 -100 80 -247
272 -320 419 -18 36 -49 87 -68 114 -58 83 -108 224 -126 360 l-5 39 37 -36
c34 -34 39 -45 50 -117z m255 -7 c77 -67 155 -84 167 -35 4 20 16 6 79 -90
193 -293 500 -523 881 -659 112 -40 115 -48 10 -24 -145 34 -317 114 -524 244
-71 45 -131 80 -133 78 -12 -13 216 -156 362 -228 148 -73 287 -123 448 -159
115 -26 123 -48 11 -30 -286 48 -597 189 -820 373 -53 44 -60 53 -50 69 8 14
8 24 -4 45 -22 38 -70 63 -143 73 -69 10 -150 49 -172 84 -21 33 -23 87 -3 99
37 24 104 -48 129 -138 6 -19 14 -35 19 -35 32 0 -21 129 -70 174 -45 41 -80
46 -110 16 -21 -21 -28 -84 -10 -95 6 -3 10 -11 10 -17 0 -6 -11 -1 -25 12
-48 45 -137 245 -160 360 -7 33 -4 31 32 -25 22 -33 56 -75 76 -92z m-526 105
c-3 -8 -6 -5 -6 6 -1 11 2 17 5 13 3 -3 4 -12 1 -19z m10 -60 c-3 -7 -5 -2 -5
12 0 14 2 19 5 13 2 -7 2 -19 0 -25z m917 -9 c54 -63 14 -137 -41 -76 -28 30
-36 62 -23 87 15 28 34 25 64 -11z m-293 -385 c75 -94 264 -264 385 -345 113
-76 296 -168 423 -213 74 -27 274 -79 344 -91 24 -4 37 -11 37 -21 0 -18 -16
-16 -182 17 -147 30 -377 113 -488 177 -248 141 -473 345 -643 583 -29 41 -56
81 -61 89 -12 23 131 -128 185 -196z m530 159 c13 -16 12 -17 -3 -4 -10 7 -18
15 -18 17 0 8 8 3 21 -13z m30 -40 c13 -16 12 -17 -3 -4 -17 13 -22 21 -14 21
2 0 10 -8 17 -17z m272 -246 c135 -90 306 -164 472 -205 22 -6 30 -10 19 -11
-34 -2 -182 44 -275 85 -155 68 -341 194 -411 278 -39 47 -37 46 32 -19 41
-38 114 -96 163 -128z m-718 113 c47 -10 52 -14 80 -65 26 -49 33 -55 61 -55
22 0 47 -12 81 -38 83 -66 97 -100 19 -47 -49 33 -45 17 11 -52 54 -67 44 -63
-87 36 -119 89 -327 305 -237 247 12 -9 45 -20 72 -26z m154 -27 c40 -38 44
-67 10 -71 -32 -4 -89 46 -89 77 0 31 43 27 79 -6z m90 -391 c19 -9 41 -27 48
-39 32 -48 -61 -85 -117 -46 -96 66 -36 139 69 85z m1859 -67 c-3 -3 -9 2 -12
12 -6 14 -5 15 5 6 7 -7 10 -15 7 -18z m-22 -10 c9 -8 11 -15 6 -15 -5 0 -15
7 -22 15 -7 8 -9 15 -6 15 4 0 14 -7 22 -15z m-1641 -75 c0 -29 -32 -41 -41
-16 -9 24 4 48 23 44 12 -2 18 -12 18 -28z m833 18 c43 -43 -60 -128 -155
-128 -46 0 -17 86 40 120 36 22 97 26 115 8z m612 -78 c0 -5 -2 -10 -4 -10 -3
0 -8 5 -11 10 -3 6 -1 10 4 10 6 0 11 -4 11 -10z m-1246 -25 c8 -22 -4 -45
-24 -45 -20 0 -36 33 -25 50 9 15 42 12 49 -5z m766 -15 c0 -13 -120 -13 -140
0 -10 7 9 10 63 10 45 0 77 -4 77 -10z m277 -86 c-3 -3 -12 -4 -19 -1 -8 3 -5
6 6 6 11 1 17 -2 13 -5z m-93 -29 c-4 -8 -13 -15 -20 -15 -12 0 -12 3 -2 15
17 19 29 19 22 0z m36 5 c0 -5 -5 -10 -11 -10 -5 0 -7 5 -4 10 3 6 8 10 11 10
2 0 4 -4 4 -10z m-105 -30 c-3 -5 -16 -10 -28 -9 -21 0 -21 1 -2 9 28 12 37
12 30 0z m-108 -6 c-3 -3 -12 -4 -19 -1 -8 3 -5 6 6 6 11 1 17 -2 13 -5z m62
-24 c-7 -5 -18 -6 -26 -3 -7 3 -19 1 -26 -5 -6 -5 -24 -12 -39 -16 -14 -3 -34
-9 -45 -13 -16 -6 -16 -5 -4 10 7 9 17 14 23 11 5 -3 14 -1 21 4 17 14 79 30
95 24 11 -4 11 -6 1 -12z m-142 -56 c-3 -3 -12 -4 -19 -1 -8 3 -5 6 6 6 11 1
17 -2 13 -5z"/>
<path d="M1793 3153 c9 -2 23 -2 30 0 6 3 -1 5 -18 5 -16 0 -22 -2 -12 -5z"/>
<path d="M1708 3143 c6 -2 18 -2 25 0 6 3 1 5 -13 5 -14 0 -19 -2 -12 -5z"/>
<path d="M2080 3119 c-106 -12 -188 -34 -317 -85 -62 -24 -117 -44 -123 -44
-19 0 -205 -62 -290 -97 -100 -42 -207 -102 -257 -146 -31 -28 -33 -32 -17
-38 28 -11 29 -11 68 20 67 53 306 164 401 186 56 12 7 -20 -101 -67 -95 -42
-200 -105 -191 -114 2 -3 43 16 91 41 48 25 96 45 108 45 20 0 18 -4 -17 -41
-38 -39 -148 -99 -183 -99 -12 0 -10 -5 8 -25 27 -28 40 -32 40 -11 0 17 37
46 58 46 12 0 11 -4 -2 -22 -9 -13 -34 -61 -57 -108 -22 -47 -53 -101 -68
-121 -16 -19 -61 -100 -101 -178 -86 -173 -88 -191 -17 -238 26 -17 71 -37
101 -44 54 -12 55 -12 76 -68 44 -115 134 -253 241 -367 26 -28 62 -80 79
-115 63 -126 187 -269 295 -341 50 -34 178 -88 207 -88 15 0 8 27 -13 45 -11
11 -42 63 -69 116 -38 75 -51 113 -56 164 -6 60 -5 68 17 91 25 27 207 133
353 207 100 51 100 55 -14 77 -48 9 -129 10 -308 5 -177 -6 -254 -4 -285 4
-65 19 -118 60 -146 116 -23 43 -26 62 -26 145 0 162 58 289 177 390 58 48
210 140 234 140 5 0 -20 -27 -55 -60 -35 -34 -61 -64 -57 -67 3 -4 44 30 90
75 85 83 126 108 86 52 -44 -62 -108 -130 -153 -165 -45 -35 -61 -65 -34 -65
33 0 108 67 184 162 104 132 109 136 224 196 181 95 285 175 350 269 40 57 38
84 -8 122 -94 78 -324 122 -523 100z m100 -48 c0 -5 -7 -14 -16 -22 -30 -25
-57 -93 -58 -146 l-1 -52 -50 -7 c-172 -23 -326 -104 -451 -235 -102 -108
-158 -204 -200 -346 -23 -79 -25 -100 -21 -208 4 -88 11 -137 27 -185 22 -63
76 -180 84 -180 2 0 -11 35 -30 77 -50 118 -65 185 -65 303 -1 201 69 366 216
516 71 72 187 152 272 188 54 22 195 66 215 66 4 0 15 -15 24 -32 23 -47 53
-77 99 -100 l39 -20 -44 -24 c-25 -13 -81 -37 -125 -54 -44 -18 -130 -56 -191
-85 -92 -45 -126 -67 -195 -133 -183 -173 -243 -372 -175 -575 29 -87 46 -232
26 -225 -7 2 -23 23 -35 46 -12 23 -25 39 -27 36 -8 -8 -53 50 -94 119 -123
210 -154 439 -89 660 48 165 120 277 253 392 136 118 295 189 492 220 106 16
120 17 120 6z m278 -35 c63 -21 132 -59 132 -72 0 -39 -130 -166 -215 -208
-51 -26 -60 -28 -94 -17 -53 15 -90 47 -112 95 -35 78 -18 150 50 207 34 29
39 30 102 25 37 -3 99 -17 137 -30z m-1223 -693 c-4 -21 -17 -63 -30 -94 -13
-31 -29 -87 -36 -125 -7 -38 -14 -71 -16 -73 -2 -3 -14 6 -27 18 -27 25 -26
31 14 131 20 51 90 179 99 180 2 0 0 -17 -4 -37z m10 -290 c7 -29 5 -33 -13
-33 -56 0 -63 23 -37 125 24 93 28 95 36 15 3 -41 10 -90 14 -107z m650 -394
c291 8 393 7 405 -5 9 -9 3 -15 -22 -23 -18 -6 -89 -44 -158 -84 -111 -64
-131 -72 -175 -71 -55 0 -161 43 -225 92 -25 18 -31 20 -20 7 8 -11 22 -26 30
-33 27 -23 173 -92 196 -92 22 0 22 -1 7 -31 -19 -38 -12 -110 17 -187 11 -29
20 -57 20 -63 0 -36 -179 155 -266 285 -61 90 -68 98 -54 62 29 -76 259 -350
311 -370 25 -9 56 -52 46 -63 -3 -2 -38 19 -80 47 -162 108 -307 321 -307 450
0 54 1 56 33 38 17 -9 15 -3 -10 26 -52 58 -43 68 30 37 60 -25 67 -26 222
-22z"/>
<path d="M2361 2948 c-16 -43 20 -79 58 -58 26 13 29 65 5 74 -31 12 -55 6
-63 -16z"/>
<path d="M1689 1626 c7 -9 38 -25 69 -37 48 -19 78 -23 182 -23 74 -1 133 3
143 10 14 8 -8 10 -87 6 -114 -5 -199 7 -273 39 -35 15 -43 16 -34 5z"/>
<path d="M1640 1593 c0 -20 80 -111 152 -172 96 -81 111 -78 21 4 -40 36 -95
91 -123 122 -27 32 -50 52 -50 46z"/>
<path d="M920 2703 c-9 -2 -21 -12 -28 -23 -17 -28 8 -27 33 0 20 22 18 28 -5
23z"/>
<path d="M770 2670 c0 -5 7 -7 15 -4 8 4 15 8 15 10 0 2 -7 4 -15 4 -8 0 -15
-4 -15 -10z"/>
<path d="M838 2650 c-4 -14 -58 -24 -58 -10 0 5 -5 10 -11 10 -8 0 -8 -5 1
-15 7 -8 20 -15 29 -15 21 0 58 26 50 35 -4 3 -9 1 -11 -5z"/>
<path d="M3130 2470 c0 -5 5 -10 10 -10 6 0 10 5 10 10 0 6 -4 10 -10 10 -5 0
-10 -4 -10 -10z"/>
<path d="M2632 2397 c-12 -13 -22 -31 -22 -40 0 -23 36 -57 60 -57 11 0 29 9
40 20 11 11 20 29 20 40 0 25 -34 60 -58 60 -10 0 -28 -10 -40 -23z"/>
<path d="M969 2356 c-9 -20 -9 -29 1 -40 19 -24 52 -2 48 32 -4 36 -34 41 -49
8z m34 -11 c8 -18 -11 -31 -25 -17 -11 11 -3 32 12 32 4 0 10 -7 13 -15z"/>
<path d="M481 2246 c-18 -22 -9 -51 17 -54 21 -3 23 0 20 29 -3 37 -19 47 -37
25z"/>
<path d="M2625 2176 c-20 -31 -6 -63 31 -72 46 -12 85 51 52 84 -21 21 -66 14
-83 -12z"/>
<path d="M436 2108 c-19 -26 -19 -29 -6 -63 8 -22 13 -24 30 -15 23 12 18 32
-5 23 -18 -6 -19 10 -4 38 5 11 14 17 20 14 5 -4 9 1 9 9 0 23 -26 19 -44 -6z"/>
<path d="M958 1834 c-24 -24 0 -85 52 -131 31 -29 106 -28 124 0 13 21 -17 81
-57 111 -26 19 -107 33 -119 20z m86 -18 c38 -16 76 -60 76 -88 0 -10 -10 -22
-22 -27 -43 -16 -105 23 -129 81 -10 25 -10 31 2 39 19 12 34 11 73 -5z"/>
<path d="M2098 183 c-16 -2 -28 -8 -28 -12 0 -10 69 -1 76 10 5 9 1 9 -48 2z"/>
<path d="M1678 173 c12 -2 30 -2 40 0 9 3 -1 5 -23 4 -22 0 -30 -2 -17 -4z"/>
<path d="M1740 176 c0 -2 7 -6 15 -10 8 -3 15 -1 15 4 0 6 -7 10 -15 10 -8 0
-15 -2 -15 -4z"/>
<path d="M1810 169 c-21 -4 5 -7 63 -7 54 0 96 3 93 5 -8 8 -117 9 -156 2z"/>
<path d="M2005 170 c-3 -5 1 -10 10 -10 9 0 13 5 10 10 -3 6 -8 10 -10 10 -2
0 -7 -4 -10 -10z"/>
<path d="M652 2150 c0 -14 2 -19 5 -12 2 6 2 18 0 25 -3 6 -5 1 -5 -13z"/>
<path d="M2022 460 c-42 -30 -57 -50 -24 -30 24 14 78 60 71 60 -3 0 -25 -14
-47 -30z"/>
</g>
</svg>
